<svg xmlns="http://www.w3.org/2000/svg" width="71" height="166" viewBox="0 0 71 166" fill="none">
<path d="M40.2686 166H35.7538V56.7045C35.7109 56.6973 35.668 56.6902 35.6215 56.683C35.4214 57.1404 35.2212 57.5979 35.021 58.0589C34.1559 60.0566 33.2837 62.0543 32.4222 64.0556C31.6787 65.7817 30.9423 67.5114 30.1952 69.2375C29.5339 70.7671 28.8583 72.2859 28.197 73.8155C27.4463 75.5523 26.7063 77.2963 25.9521 79.0331C25.2908 80.5627 24.6151 82.0851 23.9503 83.6111C23.4141 84.8369 22.8779 86.0627 22.3595 87.2992C22.2416 87.5779 22.0736 87.6423 21.8019 87.6387C20.7724 87.628 19.7429 87.6208 18.7169 87.6387C18.3881 87.6459 18.2165 87.5029 18.0985 87.2277C17.2764 85.3336 16.4506 83.4431 15.6213 81.5526C14.8706 79.8444 14.1056 78.1433 13.3549 76.4386C12.6043 74.7304 11.8643 73.0186 11.1136 71.3139C10.363 69.6056 9.59798 67.9081 8.8473 66.1999C8.01082 64.2986 7.1815 62.3903 6.35218 60.4855C5.81241 59.2454 5.27621 58.0053 4.73286 56.7652C4.71856 56.733 4.66851 56.7188 4.572 56.6544C4.53982 56.851 4.48978 57.0046 4.48978 57.1619C4.48978 67.1612 4.49335 77.1641 4.50765 87.1634C4.50765 87.5172 4.40756 87.6423 4.0501 87.6387C2.86331 87.6244 1.67652 87.6351 0.493304 87.6316C0.339593 87.6316 0.185883 87.603 0 87.5851C0 87.4279 0 87.3028 0 87.1777C0.00357466 74.7447 0.00357466 62.3152 0.00357466 49.8858C0.00357466 49.3175 0.0250227 49.2925 0.618417 49.2925C2.34856 49.2925 4.07869 49.3104 5.80526 49.2818C6.20919 49.2747 6.4201 49.4355 6.55951 49.7571C7.21367 51.2438 7.85711 52.734 8.5077 54.2171C9.17259 55.7288 9.8482 57.2334 10.5131 58.7451C11.2602 60.439 11.9966 62.1365 12.7401 63.8305C13.3978 65.3315 14.0627 66.8253 14.7205 68.3262C15.3854 69.8379 16.0502 71.3496 16.7116 72.8613C17.3657 74.348 18.0163 75.8311 18.6705 77.3178C19.1638 78.4399 19.6535 79.5585 20.1575 80.6771C20.2076 80.7914 20.3291 80.87 20.4185 80.9665C20.5043 80.8665 20.6187 80.7771 20.6687 80.6592C21.3479 79.1082 22.0199 77.5536 22.692 75.9955C23.3497 74.4659 24.0039 72.9328 24.6616 71.4032C25.3265 69.8629 26.0057 68.3227 26.6706 66.7824C27.4141 65.0563 28.1505 63.3266 28.894 61.604C29.4731 60.2568 30.0665 58.9166 30.6456 57.5693C31.214 56.2506 31.7788 54.9247 32.3436 53.606C32.8941 52.3231 33.4446 51.0401 33.9986 49.7607C34.1381 49.4391 34.3454 49.2747 34.7493 49.2818C36.4187 49.2997 38.0916 49.2711 39.7646 49.2604C39.9219 49.2604 40.0756 49.2604 40.2615 49.2604V166H40.2686Z" fill="#0E0D0C"/>
<path d="M70.9928 87.8388C70.7605 87.8639 70.5961 87.896 70.4316 87.896C68.5013 87.896 66.5746 87.8889 64.6442 87.9032C64.2618 87.9032 64.0151 87.7817 63.772 87.4886C59.5396 82.4818 55.2965 77.4893 51.0569 72.4896C50.2991 71.5962 49.552 70.6956 48.8013 69.7986C48.7584 69.7486 48.7048 69.7057 48.6655 69.67C48.6226 69.6807 48.6083 69.6843 48.594 69.6878C48.5797 69.6914 48.5654 69.6986 48.5583 69.7093C48.5475 69.72 48.5404 69.7307 48.5332 69.745C48.5225 69.77 48.5118 69.7986 48.5046 69.8236C48.5011 69.8379 48.5011 69.8522 48.4975 69.8665C48.4975 69.8951 48.4975 69.9237 48.4975 69.9523C48.4975 69.9666 48.4975 69.9809 48.4975 69.9952C48.4975 70.0238 48.4975 70.0524 48.4975 70.081C48.4975 101.969 48.5046 133.861 48.5082 165.75C48.5082 165.778 48.5082 165.807 48.5046 165.836C48.5046 165.85 48.5011 165.864 48.4975 165.879C48.4975 165.893 48.4939 165.907 48.4868 165.921C48.4796 165.936 48.4725 165.946 48.4439 165.989H44.0149V0H48.5261V66.3571C48.6691 66.2928 48.7298 66.2821 48.762 66.2463C52.8478 61.8935 56.9337 57.5371 61.0195 53.1808C62.0347 52.0979 63.0464 51.0044 64.083 49.943C64.2617 49.7607 64.5692 49.6177 64.8194 49.6142C66.5638 49.5856 68.3047 49.5963 70.0491 49.6034C70.1742 49.6034 70.2994 49.6785 70.4245 49.7178C70.3601 49.8393 70.3208 49.9823 70.2314 50.0752C64.7586 55.8146 59.2858 61.5504 53.7987 67.2756C53.4913 67.5972 53.4877 67.7866 53.7808 68.1225C58.5566 73.5832 63.3216 79.0546 68.0902 84.5224C69.0339 85.6053 69.9884 86.6845 71 87.8388H70.9928Z" fill="#0E0D0C"/>
<path d="M51.9935 158.538C52.1079 155.322 54.6209 152.956 57.8023 153.067C60.73 153.17 63.1143 155.822 62.9999 158.842C62.8784 161.969 60.3582 164.388 57.3269 164.288C54.317 164.192 51.8898 161.569 51.9971 158.538H51.9935ZM57.5199 155.122C55.5539 155.114 53.9417 156.719 53.9453 158.677C53.9453 160.604 55.5717 162.223 57.4949 162.226C59.4181 162.226 61.041 160.607 61.0481 158.681C61.0517 156.74 59.4538 155.129 57.5199 155.122Z" fill="#0E0D0C"/>
<path d="M52.2294 133.047H62.7604C62.7711 133.211 62.7854 133.361 62.7854 133.511C62.7854 134.751 62.7461 135.995 62.7961 137.235C62.9213 140.459 60.0687 142.86 56.7192 142.388C54.5387 142.081 53.0159 140.912 52.3653 138.75C52.2616 138.4 52.2116 138.021 52.208 137.653C52.1901 136.213 52.2008 134.769 52.2008 133.329C52.2008 133.247 52.2151 133.165 52.2294 133.043V133.047ZM53.9453 135.112C53.9453 135.816 53.9167 136.47 53.9524 137.124C54.0346 138.668 54.9533 139.808 56.4046 140.219C58.0311 140.68 59.6969 140.169 60.5548 138.958C61.3949 137.771 61.1375 136.434 61.1661 135.112H53.9453Z" fill="#0E0D0C"/>
<path d="M62.7675 119.295V121.346C62.596 121.346 62.4422 121.346 62.2921 121.346C60.4655 121.346 58.6352 121.332 56.8086 121.353C55.8005 121.368 54.9212 121.711 54.3814 122.622C53.3483 124.359 54.4314 126.474 56.4583 126.575C58.3671 126.667 60.2832 126.614 62.1992 126.628C62.3815 126.628 62.5638 126.628 62.7675 126.628V128.633C62.7139 128.654 62.6782 128.683 62.6389 128.683C60.5262 128.672 58.41 128.722 56.301 128.626C54.1347 128.526 52.4868 127.014 52.0864 124.949C51.5181 122.004 53.5556 119.391 56.5548 119.306C58.6066 119.248 60.6656 119.295 62.7711 119.295H62.7675Z" fill="#0E0D0C"/>
<path d="M53.4162 96.5659C53.8916 97.0555 54.3564 97.5344 54.8461 98.0383C54.2884 98.6994 53.9417 99.5107 53.9381 100.447C53.9381 100.59 53.9381 100.733 53.9667 100.872C54.0847 101.476 54.4529 101.894 54.9283 101.948C55.5002 102.012 55.8398 101.673 56.065 101.208C56.2867 100.747 56.4654 100.265 56.6727 99.793C56.8658 99.3498 57.0374 98.8924 57.2733 98.4707C57.9274 97.3057 58.9248 96.6945 60.2796 96.8554C61.595 97.0126 62.453 97.8096 62.8033 99.0496C63.293 100.79 62.9927 102.405 61.8024 103.824C61.327 103.324 60.8765 102.852 60.3904 102.345C60.7729 101.905 61.0982 101.326 61.0875 100.647C61.0803 100.261 61.0231 99.8359 60.8444 99.5035C60.469 98.8031 59.6075 98.7637 59.1571 99.4177C58.8783 99.8251 58.6888 100.293 58.4815 100.747C58.2384 101.28 58.0597 101.841 57.788 102.355C57.0802 103.699 55.9364 104.31 54.603 104.103C53.3554 103.91 52.2723 102.809 52.0686 101.412C51.8148 99.6715 52.1508 98.0561 53.3018 96.6695C53.3376 96.6266 53.3805 96.5945 53.4198 96.5588L53.4162 96.5659Z" fill="#0E0D0C"/>
<path d="M52.2223 112.54V110.461H60.9588V107.544H62.7425V115.417H60.9695V112.54H52.2223Z" fill="#0E0D0C"/>
<path d="M62.7532 146.78V148.775H52.2294V146.78H62.7532Z" fill="#0E0D0C"/>
</svg>