<svg width="125" height="294" viewBox="0 0 125 294" fill="none" xmlns="http://www.w3.org/2000/svg">
<path d="M70.8954 294H62.9468V100.428C62.8713 100.416 62.7958 100.403 62.714 100.39C62.3615 101.201 62.0091 102.011 61.6567 102.827C60.1337 106.365 58.5981 109.903 57.0814 113.448C55.7723 116.505 54.4759 119.568 53.1606 122.626C51.9963 125.335 50.8068 128.025 49.6425 130.733C48.3209 133.81 47.0182 136.898 45.6903 139.974C44.526 142.683 43.3365 145.38 42.1659 148.082C41.2219 150.253 40.2779 152.424 39.3654 154.614C39.1577 155.108 38.8619 155.222 38.3836 155.216C36.5711 155.197 34.7586 155.184 32.9524 155.216C32.3734 155.228 32.0713 154.975 31.8636 154.488C30.4161 151.133 28.9623 147.785 27.5023 144.437C26.1806 141.411 24.8338 138.398 23.5122 135.379C22.1906 132.354 20.8879 129.322 19.5663 126.303C18.2446 123.277 16.8978 120.271 15.5762 117.246C14.1036 113.878 12.6435 110.498 11.1834 107.125C10.2331 104.929 9.28909 102.732 8.33249 100.536C8.30732 100.479 8.21921 100.454 8.04929 100.34C7.99265 100.688 7.90454 100.96 7.90454 101.239C7.90454 118.948 7.91083 136.664 7.93601 154.374C7.93601 155 7.75979 155.222 7.13045 155.216C5.04103 155.19 2.95162 155.209 0.868492 155.203C0.597875 155.203 0.327258 155.152 0 155.121C0 154.842 0 154.621 0 154.399C0.00629342 132.379 0.00629342 110.366 0.00629342 88.3519C0.00629342 87.3455 0.044054 87.3012 1.08876 87.3012C4.13478 87.3012 7.1808 87.3329 10.2205 87.2822C10.9317 87.2696 11.303 87.5544 11.5484 88.124C12.7001 90.7571 13.8329 93.3964 14.9784 96.0231C16.1489 98.7005 17.3384 101.365 18.509 104.042C19.8243 107.043 21.1207 110.049 22.4298 113.049C23.5878 115.708 24.7583 118.353 25.9163 121.012C27.0869 123.689 28.2575 126.366 29.4218 129.044C30.5735 131.677 31.7189 134.303 32.8706 136.936C33.739 138.924 34.6012 140.905 35.4886 142.886C35.5767 143.088 35.7907 143.228 35.948 143.399C36.0991 143.221 36.3005 143.063 36.3886 142.854C37.5843 140.107 38.7675 137.354 39.9507 134.594C41.1086 131.885 42.2603 129.17 43.4183 126.461C44.5889 123.733 45.7847 121.005 46.9552 118.277C48.2643 115.22 49.5607 112.157 50.8697 109.106C51.8893 106.72 52.934 104.346 53.9535 101.96C54.9542 99.6245 55.9485 97.2763 56.9429 94.9408C57.9121 92.6685 58.8813 90.3963 59.8568 88.1304C60.1022 87.5607 60.4672 87.2696 61.1784 87.2822C64.1174 87.3139 67.0627 87.2632 70.008 87.2443C70.285 87.2443 70.5556 87.2443 70.8828 87.2443V294H70.8954Z" fill="#ECE7DC"/>
<path d="M124.987 155.57C124.578 155.614 124.289 155.671 123.999 155.671C120.601 155.671 117.209 155.659 113.81 155.684C113.137 155.684 112.703 155.469 112.275 154.95C104.823 146.082 97.353 137.24 89.889 128.385C88.5548 126.803 87.2394 125.208 85.9178 123.619C85.8423 123.531 85.7479 123.455 85.6787 123.391C85.6032 123.41 85.578 123.417 85.5528 123.423C85.5276 123.429 85.5025 123.442 85.4899 123.461C85.471 123.48 85.4584 123.499 85.4458 123.524C85.4269 123.569 85.4081 123.619 85.3955 123.664C85.3892 123.689 85.3892 123.714 85.3829 123.74C85.3829 123.79 85.3829 123.841 85.3829 123.891C85.3829 123.917 85.3829 123.942 85.3829 123.967C85.3829 124.018 85.3829 124.069 85.3829 124.119C85.3829 180.596 85.3955 237.08 85.4018 293.557C85.4018 293.608 85.4018 293.658 85.3955 293.709C85.3955 293.734 85.3892 293.76 85.3829 293.785C85.3829 293.81 85.3766 293.835 85.364 293.861C85.3514 293.886 85.3388 293.905 85.2885 293.981H77.4909V0H85.4332V117.524C85.685 117.41 85.792 117.391 85.8486 117.328C93.042 109.619 100.235 101.903 107.429 94.1876C109.216 92.2698 110.997 90.333 112.822 88.4532C113.137 88.1304 113.678 87.8772 114.119 87.8709C117.19 87.8202 120.255 87.8392 123.326 87.8519C123.546 87.8519 123.766 87.9848 123.987 88.0544C123.873 88.2696 123.804 88.5228 123.647 88.6874C114.012 98.8524 104.376 109.011 94.716 119.151C94.1748 119.72 94.1685 120.056 94.6846 120.651C103.093 130.322 111.482 140.012 119.877 149.696C121.539 151.614 123.219 153.526 125 155.57H124.987Z" fill="#ECE7DC"/>
<path d="M91.5378 280.784C91.7392 275.088 96.1635 270.898 101.765 271.094C106.919 271.277 111.117 275.974 110.915 281.322C110.701 286.86 106.264 291.145 100.928 290.968C95.6286 290.797 91.3553 286.152 91.5441 280.784H91.5378ZM101.267 274.733C97.8061 274.721 94.9678 277.563 94.9741 281.031C94.9741 284.443 97.8376 287.31 101.223 287.316C104.609 287.316 107.467 284.449 107.479 281.037C107.485 277.601 104.672 274.746 101.267 274.733Z" fill="#ECE7DC"/>
<path d="M91.9532 235.637H110.494C110.513 235.928 110.538 236.194 110.538 236.46C110.538 238.656 110.468 240.858 110.557 243.055C110.777 248.764 105.755 253.017 99.8578 252.182C96.0188 251.637 93.3378 249.568 92.1924 245.738C92.0099 245.118 91.9218 244.447 91.9155 243.795C91.884 241.245 91.9029 238.687 91.9029 236.137C91.9029 235.991 91.9281 235.846 91.9532 235.63V235.637ZM94.9741 239.295C94.9741 240.542 94.9237 241.7 94.9867 242.859C95.1314 245.593 96.7488 247.612 99.3039 248.34C102.167 249.156 105.1 248.251 106.611 246.106C108.09 244.004 107.636 241.637 107.687 239.295H94.9741Z" fill="#ECE7DC"/>
<path d="M110.506 211.281V214.914C110.204 214.914 109.934 214.914 109.669 214.914C106.453 214.914 103.231 214.889 100.015 214.927C98.2404 214.952 96.6922 215.56 95.7419 217.174C93.9231 220.25 95.83 223.997 99.3983 224.174C102.759 224.339 106.132 224.244 109.506 224.269C109.827 224.269 110.148 224.269 110.506 224.269V227.82C110.412 227.858 110.349 227.909 110.28 227.909C106.56 227.89 102.835 227.978 99.1214 227.807C95.3076 227.63 92.4063 224.953 91.7015 221.294C90.7008 216.079 94.2881 211.452 99.5683 211.3C103.181 211.199 106.806 211.281 110.513 211.281H110.506Z" fill="#ECE7DC"/>
<path d="M94.0426 171.026C94.8797 171.893 95.6978 172.742 96.56 173.634C95.5782 174.805 94.9678 176.242 94.9615 177.9C94.9615 178.153 94.9615 178.406 95.0118 178.653C95.2195 179.723 95.8677 180.463 96.7048 180.558C97.7117 180.672 98.3096 180.071 98.7061 179.248C99.0963 178.432 99.4109 177.577 99.7759 176.742C100.116 175.957 100.418 175.147 100.833 174.4C101.985 172.337 103.741 171.254 106.126 171.539C108.442 171.818 109.952 173.229 110.569 175.425C111.431 178.508 110.903 181.369 108.807 183.881C107.97 182.995 107.177 182.16 106.321 181.261C106.994 180.482 107.567 179.457 107.548 178.255C107.536 177.571 107.435 176.818 107.12 176.229C106.46 174.989 104.943 174.919 104.15 176.077C103.659 176.799 103.325 177.628 102.96 178.432C102.532 179.375 102.218 180.369 101.739 181.28C100.493 183.66 98.4795 184.742 96.132 184.375C93.9356 184.033 92.0287 182.084 91.67 179.609C91.2232 176.527 91.8148 173.666 93.8412 171.21C93.9042 171.134 93.9797 171.077 94.0489 171.014L94.0426 171.026Z" fill="#ECE7DC"/>
<path d="M91.9406 199.319V195.635H107.322V190.47H110.462V204.414H107.341V199.319H91.9406Z" fill="#ECE7DC"/>
<path d="M110.481 259.961V263.492H91.9532V259.961H110.481Z" fill="#ECE7DC"/>
</svg>
